<svg width="335" height="73" viewBox="0 0 335 73" fill="none" xmlns="http://www.w3.org/2000/svg">
<rect x="2.5" y="2.5" width="330" height="68" rx="34" fill="url(#paint0_linear_60_17)" stroke="white" stroke-width="5"/>
<g filter="url(#filter0_d_60_17)">
<path d="M31.11 24.395H38.985C40.5717 24.395 41.9367 24.5583 43.08 24.885C44.2467 25.1883 45.2033 25.6317 45.95 26.215C46.6967 26.775 47.245 27.4517 47.595 28.245C47.9683 29.0383 48.155 29.925 48.155 30.905C48.155 32.235 47.7817 33.3667 47.035 34.3C46.3117 35.2333 45.25 35.945 43.85 36.435C45.5533 36.925 46.8017 37.6483 47.595 38.605C48.4117 39.5617 48.82 40.705 48.82 42.035C48.82 43.1317 48.5633 44.1117 48.05 44.975C47.56 45.8383 46.8717 46.5733 45.985 47.18C45.1217 47.7633 44.0833 48.2183 42.87 48.545C41.68 48.8483 40.385 49 38.985 49H31.11V24.395ZM32.86 47.495H38.985C40.0583 47.495 41.0733 47.3783 42.03 47.145C42.9867 46.9117 43.8267 46.5733 44.55 46.13C45.2733 45.6633 45.845 45.0917 46.265 44.415C46.685 43.715 46.895 42.9217 46.895 42.035C46.895 41.335 46.6967 40.67 46.3 40.04C45.9267 39.3867 45.425 38.815 44.795 38.325C44.1883 37.8117 43.4767 37.4033 42.66 37.1C41.8667 36.7967 41.05 36.6217 40.21 36.575C41.0033 36.5517 41.7617 36.3767 42.485 36.05C43.2083 35.7 43.85 35.2683 44.41 34.755C44.97 34.2183 45.4133 33.6233 45.74 32.97C46.0667 32.2933 46.23 31.605 46.23 30.905C46.23 29.365 45.635 28.1517 44.445 27.265C43.255 26.355 41.435 25.9 38.985 25.9H32.86V47.495ZM33.56 36.96H38.88C39.9533 36.96 40.9333 37.1 41.82 37.38C42.73 37.66 43.5117 38.0333 44.165 38.5C44.8183 38.9667 45.32 39.515 45.67 40.145C46.02 40.7517 46.195 41.3817 46.195 42.035C46.195 42.805 45.9967 43.4933 45.6 44.1C45.2267 44.6833 44.7133 45.1733 44.06 45.57C43.4067 45.9667 42.6367 46.27 41.75 46.48C40.8867 46.69 39.965 46.795 38.985 46.795H33.56V36.96ZM33.56 36.26V26.6H38.985C41.1783 26.6 42.8117 26.985 43.885 27.755C44.9817 28.525 45.53 29.575 45.53 30.905C45.53 31.5817 45.355 32.235 45.005 32.865C44.655 33.495 44.1767 34.0667 43.57 34.58C42.9867 35.0933 42.2867 35.5017 41.47 35.805C40.6767 36.1083 39.8133 36.26 38.88 36.26H33.56ZM35.45 38.185V45.01H39.195C40.105 45.01 40.875 44.9167 41.505 44.73C42.135 44.5433 42.6367 44.2983 43.01 43.995C43.4067 43.6683 43.6867 43.3067 43.85 42.91C44.0367 42.49 44.13 42.0467 44.13 41.58C44.13 41.16 44.025 40.7517 43.815 40.355C43.6283 39.935 43.3017 39.5733 42.835 39.27C42.3917 38.9433 41.785 38.6867 41.015 38.5C40.245 38.29 39.2883 38.185 38.145 38.185H35.45ZM35.45 28.385V35.07H38.565C39.4517 35.07 40.21 34.9767 40.84 34.79C41.4933 34.58 42.0183 34.3117 42.415 33.985C42.835 33.635 43.1383 33.2383 43.325 32.795C43.535 32.3517 43.64 31.8967 43.64 31.43C43.64 30.59 43.29 29.8783 42.59 29.295C41.9133 28.6883 40.7817 28.385 39.195 28.385H35.45ZM57.3534 24.395H61.6934V38.815C61.6934 41.1717 62.1951 42.875 63.1984 43.925C64.2251 44.9517 65.6718 45.465 67.5384 45.465C69.3818 45.465 70.8401 44.94 71.9134 43.89C72.9868 42.84 73.5234 41.1367 73.5234 38.78V24.395H77.8634V38.815C77.8634 40.6583 77.6068 42.245 77.0934 43.575C76.6034 44.905 75.9034 46.0133 74.9934 46.9C74.1068 47.7633 73.0218 48.405 71.7384 48.825C70.4784 49.245 69.0784 49.455 67.5384 49.455C65.9984 49.455 64.5984 49.245 63.3384 48.825C62.1018 48.405 61.0284 47.7633 60.1184 46.9C59.2318 46.0133 58.5434 44.905 58.0534 43.575C57.5868 42.245 57.3534 40.6583 57.3534 38.815V24.395ZM75.2034 25.97V38.955C75.2034 41.7317 74.5034 43.7967 73.1034 45.15C71.7034 46.5033 69.8484 47.18 67.5384 47.18C65.1584 47.18 63.2801 46.515 61.9034 45.185C60.5268 43.8317 59.8384 41.8017 59.8384 39.095V26.075H59.1384V39.095C59.1384 42.035 59.8968 44.24 61.4134 45.71C62.9301 47.1567 64.9718 47.88 67.5384 47.88C68.7984 47.88 69.9418 47.705 70.9684 47.355C71.9951 46.9817 72.8701 46.4217 73.5934 45.675C74.3401 44.9283 74.9118 44.0067 75.3084 42.91C75.7051 41.79 75.9034 40.4717 75.9034 38.955V25.97H75.2034ZM106.995 24.395L97.9649 39.27V49H93.5899V39.235L84.5599 24.395H89.5649L95.8299 35.28L102.095 24.395H106.995ZM96.1449 47.39V39.235L104.02 26.04H103.215L95.7949 38.43L88.4449 26.04H87.6749L95.4449 39.235V47.39H96.1449Z" fill="white"/>
<path d="M134.256 25.76C135.002 25.8533 135.714 26.0167 136.391 26.25C137.067 26.46 137.651 26.705 138.141 26.985L137.021 30.59C136.461 30.2633 135.807 29.9717 135.061 29.715C134.314 29.435 133.591 29.295 132.891 29.295C131.957 29.295 131.281 29.4933 130.861 29.89C130.464 30.2867 130.266 30.7533 130.266 31.29C130.266 31.99 130.487 32.585 130.931 33.075C131.397 33.565 132.179 34.0783 133.276 34.615C134.279 35.0817 135.107 35.5367 135.761 35.98C136.437 36.4233 136.974 36.89 137.371 37.38C137.791 37.8467 138.082 38.3483 138.246 38.885C138.432 39.4217 138.526 40.0283 138.526 40.705C138.526 42.105 138.094 43.3533 137.231 44.45C136.391 45.5467 135.201 46.27 133.661 46.62V50.75H130.196V46.725C129.309 46.6083 128.434 46.3983 127.571 46.095C126.731 45.7683 125.972 45.395 125.296 44.975L126.521 41.3C127.337 41.8367 128.201 42.2683 129.111 42.595C130.044 42.9217 130.954 43.085 131.841 43.085C132.751 43.085 133.404 42.8633 133.801 42.42C134.221 41.9767 134.431 41.475 134.431 40.915C134.431 40.565 134.384 40.2383 134.291 39.935C134.221 39.6083 134.069 39.305 133.836 39.025C133.602 38.7217 133.264 38.43 132.821 38.15C132.401 37.8467 131.829 37.5317 131.106 37.205C129.309 36.4117 128.049 35.56 127.326 34.65C126.602 33.7167 126.241 32.6317 126.241 31.395C126.241 30.1817 126.626 29.0733 127.396 28.07C128.166 27.0433 129.286 26.3317 130.756 25.935V22.295H134.256V25.76ZM136.076 27.825C135.796 27.7083 135.481 27.6033 135.131 27.51C134.827 27.4167 134.477 27.3467 134.081 27.3C133.707 27.23 133.311 27.1833 132.891 27.16V23.975H132.191V27.195C131.631 27.265 131.071 27.4167 130.511 27.65C129.974 27.86 129.496 28.1517 129.076 28.525C128.656 28.875 128.317 29.295 128.061 29.785C127.804 30.275 127.676 30.8117 127.676 31.395C127.676 32.0017 127.804 32.55 128.061 33.04C128.317 33.5067 128.656 33.9383 129.076 34.335C129.519 34.7317 130.032 35.1167 130.616 35.49C131.199 35.84 131.806 36.19 132.436 36.54C132.879 36.7967 133.322 37.065 133.766 37.345C134.232 37.6017 134.641 37.905 134.991 38.255C135.364 38.5817 135.656 38.9667 135.866 39.41C136.099 39.83 136.216 40.3317 136.216 40.915C136.216 41.5683 136.076 42.14 135.796 42.63C135.539 43.0967 135.201 43.4817 134.781 43.785C134.361 44.0883 133.882 44.3217 133.346 44.485C132.832 44.625 132.319 44.695 131.806 44.695C131.246 44.695 130.709 44.6367 130.196 44.52C129.682 44.38 129.227 44.24 128.831 44.1C128.434 43.9367 128.119 43.7967 127.886 43.68C127.652 43.54 127.547 43.47 127.571 43.47L127.361 44.205C127.337 44.205 127.442 44.2633 127.676 44.38C127.932 44.4967 128.259 44.6367 128.656 44.8C129.076 44.94 129.542 45.08 130.056 45.22C130.592 45.3367 131.141 45.395 131.701 45.395V49.14H132.401V45.395C132.961 45.3483 133.509 45.22 134.046 45.01C134.582 44.8 135.061 44.52 135.481 44.17C135.924 43.7967 136.274 43.3417 136.531 42.805C136.787 42.2683 136.916 41.6383 136.916 40.915C136.916 40.2383 136.787 39.655 136.531 39.165C136.274 38.6517 135.947 38.1967 135.551 37.8C135.154 37.4033 134.711 37.0533 134.221 36.75C133.731 36.4467 133.252 36.1667 132.786 35.91C132.156 35.56 131.572 35.2333 131.036 34.93C130.499 34.6033 130.032 34.265 129.636 33.915C129.239 33.565 128.924 33.1917 128.691 32.795C128.481 32.3983 128.376 31.9317 128.376 31.395C128.376 30.8817 128.504 30.4033 128.761 29.96C129.017 29.5167 129.356 29.1433 129.776 28.84C130.196 28.5367 130.662 28.3033 131.176 28.14C131.689 27.9533 132.202 27.86 132.716 27.86C133.112 27.86 133.497 27.895 133.871 27.965C134.267 28.035 134.606 28.105 134.886 28.175C135.212 28.2683 135.516 28.3617 135.796 28.455L136.076 27.825ZM170.427 49.315H168.922L161.292 32.69L153.767 49.315H152.297L144.562 24.395H149.357L154.012 40.075L160.627 24.15H162.062L168.747 40.04L173.367 24.395H178.092L170.427 49.315ZM169.657 46.2L175.712 26.04H174.907L169.237 44.975L161.572 27.475H161.012L153.382 44.87L147.922 26.04H147.152L153.032 46.2H153.592L161.292 28.63H161.362L169.062 46.2H169.657ZM185.807 24.395H201.802V28.385H190.147V35.28H200.717V39.13H190.147V45.01H201.802V49H185.807V24.395ZM188.257 26.74H200.402V26.04H187.557V47.425H200.402V46.725H188.257V37.695H199.282V36.995H188.257V26.74ZM211.032 24.395H227.027V28.385H215.372V35.28H225.942V39.13H215.372V45.01H227.027V49H211.032V24.395ZM213.482 26.74H225.627V26.04H212.782V47.425H225.627V46.725H213.482V37.695H224.507V36.995H213.482V26.74ZM258.026 36.085V46.62C257.28 47.1333 256.428 47.6 255.471 48.02C254.655 48.37 253.651 48.6967 252.461 49C251.295 49.28 249.976 49.42 248.506 49.42C246.43 49.42 244.54 49.105 242.836 48.475C241.133 47.8217 239.675 46.9233 238.461 45.78C237.248 44.6367 236.303 43.295 235.626 41.755C234.973 40.1917 234.646 38.5 234.646 36.68C234.646 34.9067 234.996 33.25 235.696 31.71C236.396 30.1467 237.341 28.7933 238.531 27.65C239.745 26.5067 241.156 25.6083 242.766 24.955C244.376 24.3017 246.091 23.975 247.911 23.975C249.288 23.975 250.513 24.08 251.586 24.29C252.66 24.5 253.57 24.7333 254.316 24.99C255.18 25.27 255.938 25.5967 256.591 25.97L255.086 29.68C254.456 29.4 253.791 29.1317 253.091 28.875C252.485 28.6883 251.796 28.5133 251.026 28.35C250.256 28.1633 249.463 28.07 248.646 28.07C247.2 28.07 245.905 28.2917 244.761 28.735C243.618 29.155 242.638 29.75 241.821 30.52C241.028 31.29 240.41 32.2117 239.966 33.285C239.546 34.335 239.336 35.49 239.336 36.75C239.336 37.9867 239.558 39.13 240.001 40.18C240.445 41.23 241.063 42.14 241.856 42.91C242.65 43.6567 243.583 44.2517 244.656 44.695C245.753 45.115 246.943 45.325 248.226 45.325C249.37 45.325 250.42 45.2317 251.376 45.045C252.333 44.835 253.15 44.6017 253.826 44.345V39.97H246.966V36.085H258.026ZM248.576 38.465H255.541V45.43C255.308 45.57 254.97 45.7333 254.526 45.92C254.106 46.1067 253.581 46.2933 252.951 46.48C252.345 46.6433 251.633 46.7833 250.816 46.9C250.023 47.0167 249.136 47.075 248.156 47.075C246.57 47.075 245.1 46.8183 243.746 46.305C242.416 45.7917 241.261 45.08 240.281 44.17C239.301 43.2367 238.531 42.14 237.971 40.88C237.435 39.62 237.166 38.2433 237.166 36.75C237.166 35.2333 237.423 33.8333 237.936 32.55C238.45 31.2667 239.185 30.17 240.141 29.26C241.098 28.3267 242.253 27.6033 243.606 27.09C244.983 26.5767 246.523 26.32 248.226 26.32C248.996 26.32 249.743 26.39 250.466 26.53C251.19 26.6467 251.82 26.7867 252.356 26.95C252.986 27.1367 253.593 27.335 254.176 27.545L254.456 26.915C253.873 26.6817 253.243 26.4717 252.566 26.285C251.983 26.1217 251.318 25.97 250.571 25.83C249.825 25.69 249.043 25.62 248.226 25.62C246.406 25.62 244.773 25.9 243.326 26.46C241.88 26.9967 240.643 27.755 239.616 28.735C238.613 29.715 237.831 30.8933 237.271 32.27C236.735 33.6233 236.466 35.1167 236.466 36.75C236.466 38.36 236.758 39.8417 237.341 41.195C237.925 42.525 238.73 43.68 239.756 44.66C240.806 45.64 242.043 46.41 243.466 46.97C244.89 47.5067 246.453 47.775 248.156 47.775C249.44 47.775 250.571 47.6817 251.551 47.495C252.555 47.285 253.406 47.0517 254.106 46.795C254.9 46.515 255.611 46.1883 256.241 45.815V37.765H248.576V38.465ZM266.881 24.395H271.221V45.01H282.876V49H266.881V24.395ZM268.631 26.04V47.425H281.476V46.725H269.331V26.04H268.631ZM289.987 24.395H305.982V28.385H294.327V35.28H304.897V39.13H294.327V45.01H305.982V49H289.987V24.395ZM292.437 26.74H304.582V26.04H291.737V47.425H304.582V46.725H292.437V37.695H303.462V36.995H292.437V26.74Z" fill="#FCCE06"/>
</g>
<defs>
<filter id="filter0_d_60_17" x="27.1101" y="18.295" width="282.872" height="36.455" filterUnits="userSpaceOnUse" color-interpolation-filters="sRGB">
<feFlood flood-opacity="0" result="BackgroundImageFix"/>
<feColorMatrix in="SourceAlpha" type="matrix" values="0 0 0 0 0 0 0 0 0 0 0 0 0 0 0 0 0 0 127 0" result="hardAlpha"/>
<feOffset/>
<feGaussianBlur stdDeviation="2"/>
<feComposite in2="hardAlpha" operator="out"/>
<feColorMatrix type="matrix" values="0 0 0 0 0.988235 0 0 0 0 0.807843 0 0 0 0 0.0235294 0 0 0 1 0"/>
<feBlend mode="normal" in2="BackgroundImageFix" result="effect1_dropShadow_60_17"/>
<feBlend mode="normal" in="SourceGraphic" in2="effect1_dropShadow_60_17" result="shape"/>
</filter>
<linearGradient id="paint0_linear_60_17" x1="0" y1="36.5" x2="335" y2="36.5" gradientUnits="userSpaceOnUse">
<stop stop-color="#BB8814"/>
<stop offset="1"/>
</linearGradient>
</defs>
</svg>
