<svg width="50" height="50" viewBox="0 0 50 50" fill="none" xmlns="http://www.w3.org/2000/svg">
<path d="M16.6601 0L14.9196 3.86661C14.5774 3.82572 14.2331 3.80373 13.8884 3.80073C12.7662 3.79376 11.6756 3.99161 10.6557 4.35817L8.18904 0.920516L3.51774 4.31541L6.07067 7.86878C5.28351 8.99809 4.75808 10.2872 4.53232 11.6431L0 12.138L0.56707 17.8654L5.39093 17.3376C5.93099 18.4161 6.67249 19.3824 7.57582 20.1849L5.51697 24.7643L10.7553 27.0969L12.8242 22.4976C14.0608 22.6287 15.2728 22.5111 16.4048 22.1809L19.3886 26.2487L22.7539 23.8008L23.9904 25.9288C22.4303 27.1157 21.0356 28.5036 19.8428 30.0561L14.6209 27.0636L11.8923 31.9961L16.9981 34.9456C16.2357 36.7624 15.7238 38.6735 15.4764 40.6269H9.53856V46.2984H15.5031C15.6773 47.5547 15.9623 48.7934 16.3551 49.9999H34.318C31.7808 48.8641 30.0146 46.3271 30.0146 43.3785C30.0146 39.3704 33.2774 36.1201 37.3054 36.1201C41.333 36.1201 44.5993 39.3704 44.5993 43.3785C44.5993 46.3272 42.8307 48.8642 40.2924 50H50V18.7991L48.76 18.1227L45.8325 23.1936C44.0172 22.4203 42.1042 21.8974 40.1466 21.6396V15.7769H34.4472V21.6332C32.5054 21.8842 30.6459 22.3916 28.8975 23.1145L26.0196 18.1228L22.2002 20.2607L21.2188 18.8914C21.9869 17.8961 22.5462 16.7572 22.8633 15.5426L27.5778 15.0313L27.011 9.30377L22.5285 9.74265C22.0078 8.41214 21.1891 7.21724 20.1348 6.24872L21.8985 2.33249L16.6601 0ZM13.7591 8.89477C16.231 8.86943 18.3147 10.7769 18.4671 13.2596C18.6241 15.8224 16.6631 18.0257 14.0875 18.1821C11.5118 18.3386 9.29794 16.39 9.14081 13.8271C8.98379 11.2643 10.9415 9.06116 13.5172 8.90469C13.5978 8.89983 13.6795 8.89561 13.7591 8.89477Z" fill="#FFC700"/>
</svg>
