<svg width="40" height="40" viewBox="0 0 40 40" fill="none" xmlns="http://www.w3.org/2000/svg">
<path d="M20 40C31.0467 40 40 35 40 26.25C40 22.5 38.3333 16.25 31.6667 11.25C32.5 15 27.5 16.25 27.5 16.25C30 10 23.3333 1.25 13.3333 0C14.5233 5 15 10 6.66667 15C2.5 17.5 0 21.8225 0 26.25C0 35 8.95333 40 20 40ZM20 37.5C14.4767 37.5 10 35 10 30.625C10 28.75 10.8333 25.625 14.1667 23.125C13.75 25 16.6667 26.25 16.6667 26.25C15.4167 23.125 18.3333 18.125 23.3333 17.5C22.7367 20 22.5 22.5 26.6667 25C28.75 26.25 30 28.41 30 30.625C30 35 25.5233 37.5 20 37.5Z" fill="#FFC700"/>
</svg>
