<svg width="55" height="55" viewBox="0 0 55 55" fill="none" xmlns="http://www.w3.org/2000/svg">
<path d="M51.3091 4.10994C51.2895 4.01493 51.2432 3.92749 51.1757 3.85785C51.1081 3.78822 51.0221 3.73928 50.9278 3.71677C44.6361 2.17849 30.0987 7.66023 22.2225 15.5332C20.8177 16.9266 19.537 18.4398 18.395 20.0556C15.9662 19.8408 13.5374 20.0202 11.4674 20.9225C5.62688 23.4931 3.92639 30.2006 3.45266 33.0859C3.42579 33.2438 3.43592 33.4058 3.48227 33.5592C3.52861 33.7125 3.6099 33.853 3.71975 33.9697C3.82959 34.0863 3.96499 34.1758 4.11529 34.2312C4.2656 34.2866 4.42671 34.3064 4.58596 34.289L13.965 33.2546C13.9716 33.9617 14.0143 34.668 14.0928 35.3708C14.14 35.8588 14.3566 36.3149 14.7051 36.6598L18.337 40.2832C18.6823 40.6311 19.1382 40.8477 19.6261 40.8955C20.325 40.9736 21.0273 41.0162 21.7305 41.0233L20.7014 50.3905C20.6842 50.5497 20.7042 50.7107 20.7597 50.8609C20.8152 51.0111 20.9047 51.1464 21.0213 51.2562C21.1378 51.366 21.2782 51.4473 21.4315 51.4937C21.5847 51.5401 21.7466 51.5504 21.9045 51.5238C24.7845 51.0619 31.5037 49.3614 34.0593 43.5209C34.9616 41.4509 35.1464 39.0339 34.938 36.6169C36.5577 35.4748 38.0749 34.1938 39.4723 32.7884C47.3732 24.9272 52.8238 10.7142 51.3091 4.10994ZM31.5897 23.4104C30.8682 22.6894 30.3768 21.7707 30.1776 20.7704C29.9783 19.7701 30.0803 18.7332 30.4704 17.7908C30.8606 16.8484 31.5215 16.0429 32.3695 15.4762C33.2175 14.9095 34.2145 14.607 35.2345 14.607C36.2545 14.607 37.2515 14.9095 38.0995 15.4762C38.9475 16.0429 39.6084 16.8484 39.9986 17.7908C40.3887 18.7332 40.4907 19.7701 40.2914 20.7704C40.0922 21.7707 39.6008 22.6894 38.8793 23.4104C38.4009 23.8895 37.8328 24.2696 37.2074 24.5289C36.5819 24.7882 35.9115 24.9217 35.2345 24.9217C34.5575 24.9217 33.8871 24.7882 33.2616 24.5289C32.6362 24.2696 32.0681 23.8895 31.5897 23.4104Z" fill="#FFC700"/>
<path d="M18.0898 42.9075C17.5012 43.4973 16.5569 43.7272 15.4204 43.9237C12.867 44.3588 10.6122 42.1523 11.0709 39.571C11.246 38.5924 11.7638 37.2206 12.086 36.8983C12.1565 36.8293 12.2034 36.7397 12.22 36.6425C12.2367 36.5453 12.2223 36.4452 12.1789 36.3566C12.1355 36.268 12.0653 36.1954 11.9782 36.149C11.8912 36.1025 11.7917 36.0847 11.6939 36.0981C10.2661 36.2728 8.93765 36.9201 7.92022 37.9371C5.39473 40.4648 5.15625 49.8438 5.15625 49.8438C5.15625 49.8438 14.5406 49.6053 17.0661 47.0776C18.0862 46.061 18.7344 44.7306 18.9062 43.3007C18.946 42.8517 18.3992 42.5842 18.0898 42.9075Z" fill="#FFC700"/>
</svg>
